<svg width="36" height="36" viewBox="0 0 36 36" fill="none" xmlns="http://www.w3.org/2000/svg">
<circle cx="18" cy="18" r="18" fill="#DDB7C7"/>
<g clip-path="url(#clip0)">
<path d="M9.96823 23.2319C11.0961 24.9413 12.2263 26.6507 13.3542 28.3602C13.737 28.9406 14.3358 29.2707 15.036 29.1751C15.3399 29.1341 15.5921 29.0294 15.8352 28.8382C16.1504 28.5923 16.2855 28.3238 16.4408 27.9505C16.4813 27.8549 16.5219 27.757 16.5601 27.6614C16.5038 27.798 16.4476 27.9322 16.389 28.0688C18.4175 23.2251 20.8264 18.5452 23.5933 14.0907C24.3813 12.8228 25.1985 11.5732 26.0427 10.3418C26.2814 9.9935 26.3197 9.41989 26.2138 9.02611C26.1058 8.63005 25.8041 8.19985 25.4371 8.00637C24.5749 7.54658 23.6653 7.83338 23.1273 8.61867C20.106 13.0277 17.4382 17.6848 15.1666 22.5331C14.4686 24.0195 13.8158 25.5263 13.1854 27.0445C14.2142 26.908 15.2431 26.7737 16.272 26.6371C15.1418 24.9254 14.0139 23.2182 12.8837 21.5088C12.3929 20.7668 11.3708 20.3753 10.5738 20.8965C9.84441 21.3722 9.44367 22.4375 9.96823 23.2319Z" fill="white"/>
</g>
<defs>
<clipPath id="clip0">
<rect width="16.5405" height="21.4054" fill="white" transform="translate(9.73004 7.78357)"/>
</clipPath>
</defs>
</svg>
